<svg id="Layer_1" data-name="Layer 1" xmlns="http://www.w3.org/2000/svg" viewBox="0 0 512 800.88"><defs><style>.cls-1{fill:#C4C000;}.cls-2{fill:#fff;}</style></defs><path class="cls-1" d="M463.52,535.25l-11.24-10.69a19.62,19.62,0,0,0-26.54,0L297.58,645.63,169.26,524.43a19.57,19.57,0,0,0-26.53,0l-11.24,10.62a17,17,0,0,0,0,25.06L284.26,704.94a19.72,19.72,0,0,0,13.31,5.68h.05a19.7,19.7,0,0,0,13.27-5.68L463.52,560.5A17.43,17.43,0,0,0,469,547.84,17.25,17.25,0,0,0,463.52,535.25Z" transform="translate(-42 -20.06)"/><path class="cls-1" d="M457,75.57l-133.45,97L547.15,335A256.08,256.08,0,0,0,554,276.06c0-81.13-37.94-153.55-97-200.49Z" transform="translate(-42 -20.06)"/><path class="cls-1" d="M431,57.39a255.49,255.49,0,0,0-274.54,5.48l51,156.93Z" transform="translate(-42 -20.06)"/><path class="cls-1" d="M131.14,82.07A255.8,255.8,0,0,0,51.39,344.8H216.51Z" transform="translate(-42 -20.06)"/><path class="cls-1" d="M61.82,374.8c37.4,89.13,123.83,152.77,225.36,157l51-157Z" transform="translate(-42 -20.06)"/><path class="cls-1" d="M318.92,531.2c100.65-8.18,185-74.83,219-165.84L404.34,268.31Z" transform="translate(-42 -20.06)"/><path class="cls-2" d="M119.36,812.59,111,820.94H77.89V771.12L86.24,763h-9.5V754.6H111l8.35,8.35Zm-9.5,0V763H87.4v56.84l7-7.2Zm69.13,0-8.25,8.35H153l-8.26-8.35V779.47l8.26-8.35h17.76l8.25,8.35Zm-9.4,0V779.47H154.23v33.12Zm89.16-3.75-12,12.1h-8.16l-8.26-8.26L222,820.94h-8l-12.1-12.1v-40l9.41,9.5v29l7.11,7,7.2-7.58V778.31l9.5-9.5v37.92l7,7.58,7.2-7v-29l9.41-9.5Zm58.15,12.1h-9.4V779.47H292.14v41.47h-9.51V771.12h9.51v7.19l7-7.19h9.51l8.25,8.35Zm66-8.35-8.35,8.35H350.83l-8.25-8.35V763l8.25-8.35h23.72L382.9,763v6.92l-9.51,9.6V763H352.08v49.64h21.31v-7l9.51-9.51Zm54.59,8.35H428v-7.11l-7.1,7.11h-9.5l-8.26-8.35V796.07l8.26-8.35H427L419.15,796h-6.62v16.61H428V779.47H401.87l7.11-8.35h20.25l8.26,8.35Zm82.46,0h-9.5V779.47H496.24v41.47h-9.5V779.47H472.62v41.47h-9.5V771.12h9.5v7.19l7-7.19h9.51l5.85,6,6-6H511.6l8.35,8.35Z" transform="translate(-42 -20.06)"/></svg>